<svg height="512" viewBox="0 0 512 512" width="512" xmlns="http://www.w3.org/2000/svg"><g id="Face_Savoring_Food" data-name="Face Savoring Food"><g id="Filled"><circle cx="256" cy="256" fill="#ffcc80" r="248"/><path d="m392.592 48.994a258.753 258.753 0 0 1 7.408 61.627 255.126 255.126 0 0 1 -75.172 181.607 255.88 255.88 0 0 1 -303.709 43.565c33.221 97.82 125.83 168.207 234.881 168.207 136.967 0 248-111.033 248-248a247.76 247.76 0 0 0 -111.408-207.006z" fill="#ffb74d"/><path d="m414.021 302.825-26.372-26.372c-17.113 33.123-49.325 58.749-88.674 69.718l35.85 35.85c23.085 23.085 59.527 24.07 81.4 2.2s20.881-58.311-2.204-81.396z" fill="#ef5350"/><circle cx="64" cy="240" fill="#ffe4c0" r="24"/><circle cx="448" cy="240" fill="#ffe4c0" r="24"/><path d="m429.678 329.267a61.332 61.332 0 0 0 -15.657-26.442l-26.372-26.372c-17.113 33.123-49.325 58.749-88.674 69.718l21.833 21.829a123.944 123.944 0 0 1 108.87-38.737z" fill="#e53935"/><circle cx="376" cy="380" fill="#ffb6b6" r="12"/></g><g id="Outline" fill="#231f20"><path d="m506.8 204.41a254.636 254.636 0 0 0 -38.52-91.54 256.734 256.734 0 0 0 -112.631-92.75 254.769 254.769 0 0 0 -48.059-14.92 257.909 257.909 0 0 0 -128.2 6.46 255.074 255.074 0 0 0 -67.35 32.62 8 8 0 1 0 9.01 13.22 240.019 240.019 0 0 1 304.66 368.21 240 240 0 0 1 -350.82-327.19 8.012 8.012 0 0 0 -.79-11.29 8 8 0 0 0 -11.281.79 256.535 256.535 0 0 0 -57.619 219.57 254.636 254.636 0 0 0 38.52 91.54 256.741 256.741 0 0 0 112.63 92.75 254.8 254.8 0 0 0 48.06 14.92 258.516 258.516 0 0 0 103.18 0 254.656 254.656 0 0 0 91.54-38.52 256.741 256.741 0 0 0 92.75-112.63 257.393 257.393 0 0 0 14.92-151.24z"/><path d="m91.34 78.55a8 8 0 1 0 -5.981-2.69 7.983 7.983 0 0 0 5.981 2.69z"/><path d="m256 360a168.278 168.278 0 0 0 40.564-4.932l32.608 32.608a68.359 68.359 0 0 0 46.591 20.3q.911.026 1.815.024a61.918 61.918 0 0 0 62.4-64.238 68.364 68.364 0 0 0 -20.3-46.59l-22.342-22.342a125.68 125.68 0 0 0 11.664-52.83 8 8 0 0 0 -16 0 110.234 110.234 0 0 1 -12.35 50.6c-.054.1-.106.2-.155.295a124.809 124.809 0 0 1 -33.546 40.26c-.187.136-.371.28-.549.434a142.239 142.239 0 0 1 -49.612 24.892l-.133.037a152.078 152.078 0 0 1 -40.655 5.482c-75.542 0-137-54.729-137-122a8 8 0 0 0 -16 0c0 76.093 68.636 138 153 138zm94.873-29.813 25.75 25.75a8 8 0 0 0 11.315-11.314l-24.486-24.485a141.488 141.488 0 0 0 25.942-30.62l18.97 18.97a52.425 52.425 0 0 1 15.618 35.712 45.948 45.948 0 0 1 -47.788 47.788 52.422 52.422 0 0 1 -35.707-15.62l-26.622-26.622a157.677 157.677 0 0 0 37.008-19.559z"/><path d="m144 184a24 24 0 0 1 48 0 8 8 0 0 0 16 0 40 40 0 0 0 -80 0 8 8 0 0 0 16 0z"/><path d="m336 184a24 24 0 0 1 48 0 8 8 0 0 0 16 0 40 40 0 0 0 -80 0 8 8 0 0 0 16 0z"/></g></g></svg>