<svg height="512" viewBox="0 0 512 512" width="512" xmlns="http://www.w3.org/2000/svg"><g id="Smiling_Face_With_Heart-Eyes" data-name="Smiling Face With Heart-Eyes"><g id="Filled"><ellipse cx="256" cy="272" fill="#ffcc80" rx="248" ry="232"/><path d="m421.325 99.087a226.875 226.875 0 0 1 10.675 68.913c0 64.208-26.7 124.543-75.172 169.891-48.328 45.209-112.548 70.109-180.828 70.109-53.648 0-104.779-15.386-147.674-43.9 38.098 82.305 125.69 139.9 227.674 139.9 136.967 0 248-103.87 248-232 0-68.71-31.94-130.433-82.675-172.913z" fill="#ffb74d"/><path d="m454.574 33.223a66.149 66.149 0 0 0 -50.093 6.977 66.154 66.154 0 0 0 -40.66-30.08c-34.7-8.835-69.651 10.8-78.068 43.855-21.165 83.125 79.058 142.025 79.058 142.025s116.189-3.8 137.352-86.928c8.417-33.055-12.89-67.014-47.589-75.849z" fill="#ef5350"/><path d="m57.426 33.223a66.149 66.149 0 0 1 50.093 6.977 66.154 66.154 0 0 1 40.66-30.08c34.7-8.835 69.651 10.8 78.068 43.855 21.165 83.125-79.058 142.025-79.058 142.025s-116.189-3.8-137.352-86.928c-8.417-33.055 12.89-67.014 47.589-75.849z" fill="#ef5350"/><path d="m360 248a16 16 0 0 0 -16-16h-176a16 16 0 0 0 -16 16v104a103.518 103.518 0 0 0 16.51 56.247c4.722-36.119 42.09-64.247 87.49-64.247s82.768 28.128 87.49 64.247a103.518 103.518 0 0 0 16.51-56.247z" fill="#e27484"/><path d="m360 136a135.312 135.312 0 0 1 -68.2-18.346c21.283 47.946 73.011 78.346 73.011 78.346s116.189-3.8 137.352-86.928c5.395-21.188-1.437-42.737-16.163-57.812a136.034 136.034 0 0 1 -126 84.74z" fill="#e53935"/><path d="m183.568 10.672a136 136 0 0 1 -135.568 125.328 136.275 136.275 0 0 1 -28.423-3c34.849 59.957 127.612 63 127.612 63s100.223-58.9 79.058-142.029c-5.47-21.481-22.147-37.283-42.679-43.299z" fill="#e53935"/><circle cx="48" cy="80" fill="#ff8f8f" r="24"/><circle cx="328" cy="48" fill="#ff8f8f" r="24"/><path d="m344 232h-176a16 16 0 0 0 -16 16v104a103.537 103.537 0 0 0 11.175 46.938 216.025 216.025 0 0 1 196.825-126.938v-24a16 16 0 0 0 -16-16z" fill="#d8667c"/><circle cx="56" cy="240" fill="#ffe4c0" r="24"/><circle cx="456" cy="240" fill="#ffe4c0" r="24"/><path d="m256 344c-45.4 0-82.768 28.128-87.49 64.247a103.916 103.916 0 0 0 87.49 47.753 103.916 103.916 0 0 0 87.49-47.753c-4.722-36.119-42.09-64.247-87.49-64.247z" fill="#ef5350"/><path d="m300.249 353.771a179.781 179.781 0 0 1 -108.77 79.787 103.541 103.541 0 0 0 64.521 22.442 103.916 103.916 0 0 0 87.49-47.753c-3.044-23.281-19.663-43.228-43.241-54.476z" fill="#e53935"/><circle cx="216" cy="384" fill="#ff8f8f" r="24"/></g><g id="Outline" fill="#231f20"><path d="m483.648 179.48a8 8 0 0 0 -4.258 10.482 209.776 209.776 0 0 1 16.61 82.038c0 123.514-107.664 224-240 224s-240-100.486-240-224a209.776 209.776 0 0 1 16.61-82.038 8 8 0 0 0 -14.74-6.224 225.7 225.7 0 0 0 -17.87 88.262c0 64.208 26.7 124.543 75.171 169.891 48.329 45.209 112.548 70.109 180.829 70.109s132.5-24.9 180.829-70.109c48.471-45.348 75.171-105.683 75.171-169.891a225.7 225.7 0 0 0 -17.87-88.262 8 8 0 0 0 -10.482-4.258z"/><path d="m344 224h-176a24.027 24.027 0 0 0 -24 24v104a111.329 111.329 0 0 0 17.32 59.764 8.149 8.149 0 0 0 .85 1.366c.043.056.093.107.137.162a111.912 111.912 0 0 0 187.386 0c.044-.056.094-.106.137-.162a8.171 8.171 0 0 0 .833-1.339 111.324 111.324 0 0 0 17.337-59.791v-104a24.027 24.027 0 0 0 -24-24zm8 128a95.524 95.524 0 0 1 -6.561 34.882 81.284 81.284 0 0 0 -25.679-30.732 100.789 100.789 0 0 0 -29.15-14.81 113.014 113.014 0 0 0 -34.61-5.34c-3.12 0-6.28.13-9.39.38a8 8 0 1 0 1.29 15.94c2.66-.21 5.39-.32 8.1-.32h.03c20.15 0 39.4 6.04 54.21 17.01 13.4 9.94 22.134 23.1 24.846 37.342a95.913 95.913 0 0 1 -158.167.008c2.21-11.648 8.394-22.54 18.021-31.65a8.006 8.006 0 0 0 .32-11.31 7.978 7.978 0 0 0 -11.3-.32 79.4 79.4 0 0 0 -15.57 20.14c-.651 1.208-1.252 2.432-1.828 3.663a95.505 95.505 0 0 1 -6.562-34.883v-104a8.009 8.009 0 0 1 8-8h176a8.009 8.009 0 0 1 8 8z"/><path d="m333.7 183.13a217.233 217.233 0 0 0 27.04 19.76l2.01 1.18 2.32-.07a.538.538 0 0 1 .16-.01 231.407 231.407 0 0 0 63.02-12.75c19.33-6.93 35.74-16.17 48.77-27.48a106.745 106.745 0 0 0 19.89-22.75 101.137 101.137 0 0 0 13.01-29.96 67.166 67.166 0 0 0 .55-30.84 8 8 0 0 0 -15.64 3.38 51.057 51.057 0 0 1 -.42 23.51c-4.49 17.57-13.62 32.16-27.88 44.58-20.24 17.64-46.88 26.56-65.67 30.94a225.841 225.841 0 0 1 -26.09 4.53c-2.67.3-5.24.54-7.62.71l-.28.01a221.643 221.643 0 0 1 -39.19-32.31 153.066 153.066 0 0 1 -25.66-35.08c-7.43-14.41-11.2-29.01-11.2-43.38a85.358 85.358 0 0 1 2.69-21.15 51.449 51.449 0 0 1 19.58-28.92 57.449 57.449 0 0 1 33.95-11.03 60.181 60.181 0 0 1 14.81 1.87 57.891 57.891 0 0 1 35.76 26.42l4.08 6.85 6.87-4.06a57.548 57.548 0 0 1 29.31-7.96 60.452 60.452 0 0 1 21.5 4.01 8 8 0 1 0 5.73-14.94 76.16 76.16 0 0 0 -27.23-5.07 73.165 73.165 0 0 0 -30.74 6.68 73.537 73.537 0 0 0 -17.84-16.95 75.641 75.641 0 0 0 -65.38-9.16 71.94 71.94 0 0 0 -20.33 10.47 68.607 68.607 0 0 0 -15.89 16.42 66.815 66.815 0 0 0 -9.69 21.42 101.958 101.958 0 0 0 -3.18 25.1c0 17.45 4.62 35.01 13.74 52.16 10.06 18.88 25.24 37 45.14 53.87z"/><path d="m488.29 61.7a8 8 0 1 0 -5.29-14 8 8 0 0 0 -.72 11.29 8.025 8.025 0 0 0 6.01 2.71z"/><path d="m15.09 141.01a106.745 106.745 0 0 0 19.89 22.75c18.26 15.82 42.65 27.4 72.5 34.44a222.794 222.794 0 0 0 39.42 5.79l2.34.08 2-1.17a.638.638 0 0 1 .09-.06 229.435 229.435 0 0 0 42.56-34.17c12.44-12.68 22.38-25.94 29.54-39.41 9.13-17.15 13.75-34.7 13.75-52.16a101.9 101.9 0 0 0 -3.18-25.1 66.815 66.815 0 0 0 -9.69-21.42 68.607 68.607 0 0 0 -15.89-16.42 71.94 71.94 0 0 0 -20.33-10.47 73.9 73.9 0 0 0 -23.13-3.69 76.486 76.486 0 0 0 -18.76 2.36 75.111 75.111 0 0 0 -23.49 10.49 73.537 73.537 0 0 0 -17.84 16.95 74.322 74.322 0 0 0 -30.74-6.68 76.16 76.16 0 0 0 -27.23 5.07 7.882 7.882 0 0 0 -4.44 4.21 7.969 7.969 0 0 0 -.17 6.12 8.006 8.006 0 0 0 10.34 4.61 60.452 60.452 0 0 1 21.5-4.01 57.611 57.611 0 0 1 29.32 7.96l6.86 4.06 4.08-6.84a57.869 57.869 0 0 1 35.76-26.43 60.2 60.2 0 0 1 14.82-1.87 57.463 57.463 0 0 1 33.94 11.03 51.492 51.492 0 0 1 19.58 28.91 85.616 85.616 0 0 1 2.69 21.16c0 14.79-4 29.82-11.87 44.65-11.31 21.32-28.73 38.5-41.35 49.17-7.18 6.07-13.61 10.73-17.73 13.57-1.78 1.22-3.5 2.36-5.11 3.39a218.475 218.475 0 0 1 -58.83-12.75c-16.82-6.33-30.96-14.58-42.02-24.5-13.59-12.22-22.31-26.46-26.68-43.53a51.057 51.057 0 0 1 -.42-23.51 8.013 8.013 0 0 0 -6.13-9.51 8.114 8.114 0 0 0 -1.7-.18 8.03 8.03 0 0 0 -7.81 6.31 67.166 67.166 0 0 0 .55 30.84 101.024 101.024 0 0 0 13.01 29.96z"/><path d="m18.42 59.7a8.007 8.007 0 1 0 -2.69-5.5 8 8 0 0 0 2.69 5.5z"/><path d="m216.25 343.74a8 8 0 0 0 -7.38 11.07 8 8 0 1 0 7.38-11.07z"/></g></g></svg>