<svg height="512" viewBox="0 0 512 512" width="512" xmlns="http://www.w3.org/2000/svg"><g id="Face_Vomiting" data-name="Face Vomiting"><g id="Filled"><ellipse cx="256" cy="232" fill="#ffcc80" rx="248" ry="224"/><path d="m26.1 316.129c36.831 82.019 125.879 139.871 229.9 139.871 136.967 0 248-100.288 248-224 0-65.662-31.281-124.723-81.115-165.695a212.669 212.669 0 0 1 9.115 61.695c0 62.125-26.733 120.484-75.275 164.329-48.314 43.638-112.497 67.671-180.725 67.671-54.573 0-106.55-15.386-149.9-43.871z" fill="#ffb74d"/><path d="m296 248h-80a72 72 0 0 0 -72 72 56 56 0 0 0 56 56h112a56 56 0 0 0 56-56 72 72 0 0 0 -72-72z" fill="#ef5350"/><path d="m240 256h80a80.084 80.084 0 0 1 10.322.691 71.68 71.68 0 0 0 -34.322-8.691h-80a72 72 0 0 0 -72 72 55.91 55.91 0 0 0 23.145 45.337 63.508 63.508 0 0 1 -7.145-29.337 80.091 80.091 0 0 1 80-80z" fill="#e53935"/><path d="m336 368v-96h-160v96a72 72 0 0 1 -72 72 32 32 0 0 0 -32 32 32 32 0 0 0 32 32h304a32 32 0 0 0 32-32 32 32 0 0 0 -32-32 72 72 0 0 1 -72-72z" fill="#4db6ac"/><path d="m336 272v48.94q-9.885-.93-20-.94a211.164 211.164 0 0 0 -140.17 52.96c.11-1.64.17-3.29.17-4.96v-96z" fill="#26a69a"/><path d="m440 472a32 32 0 0 1 -32 32h-148.44a267.418 267.418 0 0 0 122.56-68.79 71.931 71.931 0 0 0 25.88 4.79 31.991 31.991 0 0 1 32 32z" fill="#26a69a"/><circle cx="88" cy="248" fill="#ffe4c0" r="24"/><circle cx="120" cy="472" fill="#b2dfdb" r="24"/><circle cx="424" cy="248" fill="#ffe4c0" r="24"/><path d="m335.878 260.054a71.656 71.656 0 0 0 -39.878-12.054h-80a71.656 71.656 0 0 0 -39.878 12.054 38.877 38.877 0 0 0 38.76 35.946h82.236a38.877 38.877 0 0 0 38.76-35.946z" fill="#f5f5f5"/></g><g id="Outline" fill="#231f20"><path d="m375.959 160a8 8 0 1 0 0-16c-34.091 0-70.323 17.224-71.945 46.05a9 9 0 0 0 11.906 9.034c6.08-2.084 60.165-19.644 86.38 6.573a8 8 0 0 0 11.313-11.314c-25.34-25.343-66.963-19.812-89.388-14.311 8.575-11.577 29.031-20.032 51.734-20.032z"/><path d="m98.384 194.343a8 8 0 1 0 11.316 11.314c26.218-26.218 80.3-8.662 86.385-6.573a9 9 0 0 0 11.9-9.036c-1.621-28.824-37.853-46.048-71.944-46.048a8 8 0 0 0 0 16c22.7 0 43.163 8.454 51.735 20.032-22.428-5.501-64.051-11.032-89.392 14.311z"/><path d="m392 112c-39.869 0-62.064-4.23-72.736-27.353a8 8 0 0 0 -14.528 6.706c15.621 33.847 50.191 36.647 87.264 36.647a8 8 0 0 0 0-16z"/><path d="m203.353 80.736a8 8 0 0 0 -10.617 3.911c-10.672 23.123-32.867 27.353-72.736 27.353a8 8 0 0 0 0 16c37.073 0 71.643-2.8 87.264-36.647a8 8 0 0 0 -3.911-10.617z"/><path d="m216 240a79.863 79.863 0 0 0 -79.512 71.123 81.293 81.293 0 0 0 -.488 8.877 8 8 0 0 0 16 0 65.149 65.149 0 0 1 .392-7.121 63.68 63.68 0 0 1 18.846-38.679 47.117 47.117 0 0 0 43.642 29.8h82.24a47.116 47.116 0 0 0 43.617-29.745c.17.167.348.323.516.492a64.123 64.123 0 0 1 18.355 38.13 65.213 65.213 0 0 1 .392 7.123 8 8 0 0 0 16 0 81.2 81.2 0 0 0 -.489-8.882 80.018 80.018 0 0 0 -79.511-71.118zm81.12 48h-82.24a31.02 31.02 0 0 1 -30.08-23.917 63.936 63.936 0 0 1 31.2-8.083h80a63.623 63.623 0 0 1 31.2 8.109 31.021 31.021 0 0 1 -30.08 23.891z"/><path d="m506.76 185.09a215.349 215.349 0 0 0 -15-43.67 226.88 226.88 0 0 0 -23.71-39.46 240.259 240.259 0 0 0 -31.33-34.29 254.148 254.148 0 0 0 -37.89-28.24 265.422 265.422 0 0 0 -43.44-21.3 274.515 274.515 0 0 0 -47.95-13.441 283.68 283.68 0 0 0 -51.44-4.689h-.02a283.156 283.156 0 0 0 -57.75 5.93 272.478 272.478 0 0 0 -53.16 16.92 8 8 0 0 0 -4.14 10.53 8.013 8.013 0 0 0 7.34 4.8 7.885 7.885 0 0 0 3.2-.67 259.84 259.84 0 0 1 104.53-21.51c64.26 0 124.63 22.56 170 63.54 45.13 40.8 69.99 94.939 70 152.46-.01 65.54-32.56 126.81-89.31 168.109a8 8 0 0 0 1.31 15.891h.03c.09 0 .24 0 .45.01.19.01.43.019.72.019l2.63.061h.02l2.16-1.54a247.262 247.262 0 0 0 40.4-35.92 231.345 231.345 0 0 0 30.9-43.37 217.058 217.058 0 0 0 19.74-49.36 212.531 212.531 0 0 0 1.71-100.809z"/><path d="m119.82 52.77a8 8 0 1 0 -7.76-9.97 7.871 7.871 0 0 0 .88 6.05 8.025 8.025 0 0 0 6.88 3.92z"/><path d="m97.99 414.55 2.14 1.53.02.01 2.65-.061c.29 0 .53-.009.72-.019.21-.01.36-.01.46-.01h.02a8 8 0 0 0 1.31-15.891c-56.75-41.299-89.31-102.569-89.31-168.109.01-62.4 30.03-121.771 82.37-162.87a8 8 0 1 0 -9.88-12.59 244.264 244.264 0 0 0 -36.62 35.42 228.974 228.974 0 0 0 -27.89 41.87 216.411 216.411 0 0 0 -17.76 47.09 212.657 212.657 0 0 0 .73 104.98 217.058 217.058 0 0 0 19.74 49.36 231.345 231.345 0 0 0 30.9 43.37 247.262 247.262 0 0 0 40.4 35.92z"/><path d="m408 432a64.072 64.072 0 0 1 -64-64v-56a8 8 0 0 0 -16 0v56a79.928 79.928 0 0 0 32.055 64h-32.055a8 8 0 0 0 0 16h64a7.949 7.949 0 0 0 3.75-.938 80.336 80.336 0 0 0 12.25.938 24 24 0 0 1 0 48h-304a24 24 0 0 1 0-48 80.091 80.091 0 0 0 80-80v-24a8 8 0 0 0 -16 0v24a64.072 64.072 0 0 1 -64 64 40 40 0 0 0 0 80h304a40 40 0 0 0 0-80z"/><circle cx="296" cy="440" r="8"/><path d="m208 320a8.011 8.011 0 0 0 -8 8v48a8 8 0 0 0 16 0v-48a8.011 8.011 0 0 0 -8-8z"/><path d="m232 376v48a8 8 0 0 0 16 0v-48a8 8 0 0 0 -16 0z"/><path d="m264 328v16a8 8 0 0 0 16 0v-16a8 8 0 0 0 -16 0z"/><path d="m312 400v-48a8 8 0 0 0 -16 0v48a8 8 0 0 0 16 0z"/></g></g></svg>